<svg xmlns="http://www.w3.org/2000/svg" viewBox="0 0 800 1200" width="800" height="1200">
  <defs>
    <!-- Gradients -->
    <linearGradient id="skyGrad" x1="0" y1="0" x2="0" y2="1">
      <stop offset="0%" stop-color="#05080f"/>
      <stop offset="40%" stop-color="#0a1628"/>
      <stop offset="100%" stop-color="#131b2e"/>
    </linearGradient>
    <linearGradient id="towerGrad" x1="0" y1="0" x2="1" y2="0">
      <stop offset="0%" stop-color="#1a2035"/>
      <stop offset="50%" stop-color="#242e48"/>
      <stop offset="100%" stop-color="#1a2035"/>
    </linearGradient>
    <linearGradient id="glassGrad" x1="0" y1="0" x2="0" y2="1">
      <stop offset="0%" stop-color="#2a3a5c"/>
      <stop offset="100%" stop-color="#1e2a44"/>
    </linearGradient>
    <linearGradient id="vaultDoorGrad" x1="0" y1="0" x2="0" y2="1">
      <stop offset="0%" stop-color="#3a3a3a"/>
      <stop offset="100%" stop-color="#1a1a1a"/>
    </linearGradient>
    <linearGradient id="groundGrad" x1="0" y1="0" x2="0" y2="1">
      <stop offset="0%" stop-color="#131b2e"/>
      <stop offset="100%" stop-color="#0a0f1a"/>
    </linearGradient>
    <radialGradient id="moonGlow" cx="50%" cy="50%" r="50%">
      <stop offset="0%" stop-color="#ffffee" stop-opacity="0.9"/>
      <stop offset="40%" stop-color="#ffffcc" stop-opacity="0.3"/>
      <stop offset="100%" stop-color="#ffffcc" stop-opacity="0"/>
    </radialGradient>
    <radialGradient id="explosionGlow" cx="50%" cy="50%" r="50%">
      <stop offset="0%" stop-color="#ff4444" stop-opacity="0.6"/>
      <stop offset="100%" stop-color="#ff4444" stop-opacity="0"/>
    </radialGradient>
    <linearGradient id="elevatorShaft" x1="0" y1="0" x2="0" y2="1">
      <stop offset="0%" stop-color="#0a0a0a"/>
      <stop offset="100%" stop-color="#111111"/>
    </linearGradient>
    <!-- Snow filter -->
    <filter id="snow">
      <feTurbulence type="fractalNoise" baseFrequency="0.9" numOctaves="1" seed="2" result="noise"/>
      <feColorMatrix type="saturate" values="0" in="noise" result="grayNoise"/>
      <feComponentTransfer in="grayNoise" result="dots">
        <feFuncA type="discrete" tableValues="0 0 0 0 0 0 0 0 0 1"/>
      </feComponentTransfer>
      <feComposite in="SourceGraphic" in2="dots" operator="over"/>
    </filter>
    <!-- Glow filter for windows -->
    <filter id="windowGlow" x="-50%" y="-50%" width="200%" height="200%">
      <feGaussianBlur stdDeviation="2" result="blur"/>
      <feMerge>
        <feMergeNode in="blur"/>
        <feMergeNode in="SourceGraphic"/>
      </feMerge>
    </filter>
    <filter id="labelGlow" x="-20%" y="-20%" width="140%" height="140%">
      <feGaussianBlur stdDeviation="1.5" result="blur"/>
      <feMerge>
        <feMergeNode in="blur"/>
        <feMergeNode in="SourceGraphic"/>
      </feMerge>
    </filter>
    <filter id="sealGlow" x="-50%" y="-50%" width="200%" height="200%">
      <feGaussianBlur stdDeviation="3" result="blur"/>
      <feMerge>
        <feMergeNode in="blur"/>
        <feMergeNode in="SourceGraphic"/>
      </feMerge>
    </filter>
  </defs>

  <!-- ==================== SKY BACKGROUND ==================== -->
  <rect width="800" height="1200" fill="url(#skyGrad)"/>

  <!-- Stars -->
  <g opacity="0.7">
    <circle cx="120" cy="40" r="1.2" fill="#fff"/>
    <circle cx="250" cy="70" r="0.8" fill="#fff"/>
    <circle cx="380" cy="25" r="1" fill="#fff"/>
    <circle cx="500" cy="55" r="1.3" fill="#fff"/>
    <circle cx="620" cy="35" r="0.9" fill="#fff"/>
    <circle cx="700" cy="80" r="1.1" fill="#fff"/>
    <circle cx="80" cy="100" r="0.7" fill="#fff"/>
    <circle cx="180" cy="130" r="1" fill="#fff"/>
    <circle cx="650" cy="120" r="0.8" fill="#fff"/>
    <circle cx="730" cy="160" r="1.2" fill="#fff"/>
    <circle cx="50" cy="170" r="0.9" fill="#fff"/>
    <circle cx="320" cy="90" r="0.6" fill="#fff"/>
    <circle cx="560" cy="100" r="1.1" fill="#fff"/>
    <circle cx="150" cy="200" r="0.7" fill="#fff"/>
    <circle cx="690" cy="200" r="1" fill="#fff"/>
    <circle cx="440" cy="150" r="0.8" fill="#fff"/>
  </g>

  <!-- Moon -->
  <circle cx="680" cy="100" r="50" fill="url(#moonGlow)"/>
  <circle cx="680" cy="100" r="18" fill="#ffffee" opacity="0.85"/>

  <!-- Snowflakes (scattered) -->
  <g opacity="0.5" fill="#fff">
    <circle cx="100" cy="60" r="2"/><circle cx="220" cy="140" r="1.5"/>
    <circle cx="350" cy="100" r="2.5"/><circle cx="480" cy="180" r="1.8"/>
    <circle cx="600" cy="80" r="2"/><circle cx="710" cy="250" r="1.5"/>
    <circle cx="60" cy="250" r="2"/><circle cx="170" cy="310" r="1.8"/>
    <circle cx="640" cy="320" r="2.2"/><circle cx="740" cy="400" r="1.5"/>
    <circle cx="90" cy="450" r="1.8"/><circle cx="200" cy="500" r="2"/>
    <circle cx="680" cy="500" r="1.5"/><circle cx="50" cy="600" r="2"/>
    <circle cx="750" cy="650" r="1.8"/><circle cx="130" cy="700" r="1.5"/>
  </g>

  <!-- ==================== DISTANT CITY SKYLINE ==================== -->
  <g opacity="0.25" fill="#1a2540">
    <rect x="0" y="980" width="60" height="220"/>
    <rect x="70" y="1000" width="40" height="200"/>
    <rect x="120" y="960" width="50" height="240"/>
    <rect x="180" y="990" width="35" height="210"/>
    <rect x="580" y="970" width="45" height="230"/>
    <rect x="635" y="1000" width="55" height="200"/>
    <rect x="700" y="950" width="40" height="250"/>
    <rect x="750" y="985" width="50" height="215"/>
  </g>
  <!-- City lights -->
  <g opacity="0.3">
    <rect x="10" y="1000" width="2" height="2" fill="#ffdd88"/>
    <rect x="30" y="1010" width="2" height="2" fill="#88bbff"/>
    <rect x="130" y="980" width="2" height="2" fill="#ffdd88"/>
    <rect x="145" y="995" width="2" height="2" fill="#ffdd88"/>
    <rect x="600" y="990" width="2" height="2" fill="#88bbff"/>
    <rect x="650" y="1020" width="2" height="2" fill="#ffdd88"/>
    <rect x="715" y="970" width="2" height="2" fill="#ffdd88"/>
    <rect x="760" y="1005" width="2" height="2" fill="#88bbff"/>
  </g>

  <!-- ==================== GROUND / STREET ==================== -->
  <rect x="0" y="1100" width="800" height="100" fill="url(#groundGrad)"/>
  <rect x="0" y="1098" width="800" height="4" fill="#2a3040" rx="1"/>

  <!-- Street markings -->
  <g opacity="0.3" fill="#444">
    <rect x="50" y="1140" width="40" height="3" rx="1"/>
    <rect x="150" y="1140" width="40" height="3" rx="1"/>
    <rect x="600" y="1140" width="40" height="3" rx="1"/>
    <rect x="700" y="1140" width="40" height="3" rx="1"/>
  </g>

  <!-- ==================== NAKATOMI PLAZA TOWER ==================== -->

  <!-- Tower shadow -->
  <rect x="265" y="200" width="270" height="900" fill="#0a0e18" opacity="0.5" rx="2"/>

  <!-- Main tower body -->
  <rect x="270" y="200" width="260" height="898" fill="url(#towerGrad)" stroke="#2a3555" stroke-width="1.5" rx="2"/>

  <!-- Tower crown / top -->
  <polygon points="400,170 270,200 530,200" fill="#1e2840" stroke="#2a3555" stroke-width="1"/>
  <rect x="385" y="150" width="30" height="25" fill="#1a2035" stroke="#2a3555" stroke-width="1"/>
  <!-- Antenna -->
  <line x1="400" y1="150" x2="400" y2="120" stroke="#3a4a6a" stroke-width="2"/>
  <circle cx="400" cy="118" r="3" fill="#ff3333" opacity="0.8"/>

  <!-- ==================== FLOOR LINES ==================== -->
  <g stroke="#2a3555" stroke-width="0.5" opacity="0.6">
    <!-- Every ~28px = one floor, 32 floors total from y=200 to y=1098 -->
    <line x1="270" y1="228" x2="530" y2="228"/>
    <line x1="270" y1="256" x2="530" y2="256"/>
    <line x1="270" y1="284" x2="530" y2="284"/>
    <line x1="270" y1="312" x2="530" y2="312"/>
    <line x1="270" y1="340" x2="530" y2="340"/>
    <line x1="270" y1="368" x2="530" y2="368"/>
    <line x1="270" y1="396" x2="530" y2="396"/>
    <line x1="270" y1="424" x2="530" y2="424"/>
    <line x1="270" y1="452" x2="530" y2="452"/>
    <line x1="270" y1="480" x2="530" y2="480"/>
    <line x1="270" y1="508" x2="530" y2="508"/>
    <line x1="270" y1="536" x2="530" y2="536"/>
    <line x1="270" y1="564" x2="530" y2="564"/>
    <line x1="270" y1="592" x2="530" y2="592"/>
    <line x1="270" y1="620" x2="530" y2="620"/>
    <line x1="270" y1="648" x2="530" y2="648"/>
    <line x1="270" y1="676" x2="530" y2="676"/>
    <line x1="270" y1="704" x2="530" y2="704"/>
    <line x1="270" y1="732" x2="530" y2="732"/>
    <line x1="270" y1="760" x2="530" y2="760"/>
    <line x1="270" y1="788" x2="530" y2="788"/>
    <line x1="270" y1="816" x2="530" y2="816"/>
    <line x1="270" y1="844" x2="530" y2="844"/>
    <line x1="270" y1="872" x2="530" y2="872"/>
    <line x1="270" y1="900" x2="530" y2="900"/>
    <line x1="270" y1="928" x2="530" y2="928"/>
    <line x1="270" y1="956" x2="530" y2="956"/>
    <line x1="270" y1="984" x2="530" y2="984"/>
    <line x1="270" y1="1012" x2="530" y2="1012"/>
    <line x1="270" y1="1040" x2="530" y2="1040"/>
    <line x1="270" y1="1068" x2="530" y2="1068"/>
  </g>

  <!-- Vertical mullions -->
  <g stroke="#2a3555" stroke-width="0.5" opacity="0.4">
    <line x1="310" y1="200" x2="310" y2="1098"/>
    <line x1="350" y1="200" x2="350" y2="1098"/>
    <line x1="390" y1="200" x2="390" y2="1098"/>
    <line x1="430" y1="200" x2="430" y2="1098"/>
    <line x1="470" y1="200" x2="470" y2="1098"/>
    <line x1="510" y1="200" x2="510" y2="1098"/>
  </g>

  <!-- ==================== ELEVATOR SHAFTS (interior) ==================== -->
  <rect x="375" y="200" width="18" height="898" fill="url(#elevatorShaft)" opacity="0.6"/>
  <rect x="405" y="200" width="18" height="898" fill="url(#elevatorShaft)" opacity="0.6"/>
  <!-- Elevator car -->
  <rect x="377" y="680" width="14" height="20" fill="#333" stroke="#555" stroke-width="1" rx="1"/>
  <rect x="407" y="420" width="14" height="20" fill="#333" stroke="#555" stroke-width="1" rx="1"/>
  <!-- Elevator cables -->
  <line x1="384" y1="200" x2="384" y2="680" stroke="#444" stroke-width="0.5"/>
  <line x1="414" y1="200" x2="414" y2="420" stroke="#444" stroke-width="0.5"/>

  <!-- ==================== HVAC DUCTS ==================== -->
  <g stroke="#3a4a5a" stroke-width="3" fill="none" opacity="0.5">
    <path d="M 280,256 L 280,340 L 370,340"/>
    <path d="M 520,340 L 520,452 L 430,452"/>
    <path d="M 280,452 L 280,564 L 370,564"/>
    <path d="M 520,564 L 520,700"/>
  </g>
  <!-- Vent grilles -->
  <g fill="#3a4a5a" opacity="0.5">
    <rect x="276" y="250" width="8" height="8" rx="1"/>
    <rect x="516" y="696" width="8" height="8" rx="1"/>
  </g>

  <!-- ==================== SECURITY CAMERAS ==================== -->
  <g opacity="0.7">
    <!-- Camera near lobby -->
    <g transform="translate(285, 1055)">
      <rect x="0" y="0" width="8" height="5" fill="#444" rx="1"/>
      <polygon points="8,1 14,0 14,6 8,5" fill="#333"/>
      <circle cx="12" cy="3" r="1.5" fill="#ff3333" opacity="0.8"/>
    </g>
    <!-- Camera on 30th floor -->
    <g transform="translate(515, 267)">
      <rect x="0" y="0" width="8" height="5" fill="#444" rx="1"/>
      <polygon points="0,1 -6,0 -6,6 0,5" fill="#333"/>
      <circle cx="-4" cy="3" r="1.5" fill="#ff3333" opacity="0.8"/>
    </g>
    <!-- Camera near vault -->
    <g transform="translate(285, 835)">
      <rect x="0" y="0" width="8" height="5" fill="#444" rx="1"/>
      <polygon points="8,1 14,0 14,6 8,5" fill="#333"/>
      <circle cx="12" cy="3" r="1.5" fill="#ff3333" opacity="0.8"/>
    </g>
  </g>

  <!-- ==================== ROOF AREA ==================== -->
  <!-- Helipad marking -->
  <circle cx="400" cy="190" r="12" fill="none" stroke="#445577" stroke-width="1" opacity="0.5"/>
  <text x="400" y="194" text-anchor="middle" font-family="monospace" font-size="10" fill="#445577" opacity="0.5">H</text>

  <!-- C4 explosives on roof -->
  <g transform="translate(310, 185)">
    <rect x="0" y="0" width="12" height="8" fill="#8b4513" rx="1" stroke="#a0522d" stroke-width="0.5"/>
    <line x1="2" y1="4" x2="10" y2="4" stroke="#cc0000" stroke-width="0.8"/>
    <circle cx="6" cy="4" r="1.5" fill="#cc0000"/>
  </g>
  <g transform="translate(470, 188)">
    <rect x="0" y="0" width="12" height="8" fill="#8b4513" rx="1" stroke="#a0522d" stroke-width="0.5"/>
    <line x1="2" y1="4" x2="10" y2="4" stroke="#cc0000" stroke-width="0.8"/>
    <circle cx="6" cy="4" r="1.5" fill="#cc0000"/>
  </g>
  <!-- Explosion glow hint -->
  <circle cx="316" cy="189" r="15" fill="url(#explosionGlow)" opacity="0.3"/>
  <circle cx="476" cy="192" r="15" fill="url(#explosionGlow)" opacity="0.3"/>

  <!-- FBI Helicopter (distant) -->
  <g transform="translate(620, 170)" opacity="0.5">
    <ellipse cx="0" cy="0" rx="20" ry="6" fill="#1a2540" stroke="#2a3a5c" stroke-width="0.5"/>
    <rect x="-3" y="-10" width="6" height="10" fill="#1a2540" rx="1"/>
    <line x1="-18" y1="-10" x2="18" y2="-10" stroke="#2a3a5c" stroke-width="1.5"/>
    <line x1="18" y1="0" x2="35" y2="2" stroke="#2a3a5c" stroke-width="1"/>
    <!-- Searchlight -->
    <polygon points="-2,6 -15,60 15,60 2,6" fill="#ffffcc" opacity="0.08"/>
  </g>

  <!-- ==================== 30TH FLOOR - PARTY ==================== -->
  <!-- Warm lit windows for party floor -->
  <g filter="url(#windowGlow)">
    <rect x="275" y="260" width="30" height="18" fill="#ffcc44" opacity="0.4" rx="1"/>
    <rect x="312" y="260" width="30" height="18" fill="#ffdd66" opacity="0.35" rx="1"/>
    <rect x="350" y="260" width="18" height="18" fill="#ffcc44" opacity="0.3" rx="1"/>
    <rect x="432" y="260" width="18" height="18" fill="#ffdd66" opacity="0.35" rx="1"/>
    <rect x="458" y="260" width="30" height="18" fill="#ffcc44" opacity="0.4" rx="1"/>
    <rect x="495" y="260" width="30" height="18" fill="#ffdd66" opacity="0.3" rx="1"/>
  </g>

  <!-- Christmas tree on 30th floor -->
  <g transform="translate(450, 260)">
    <polygon points="0,-16 -8,0 8,0" fill="#1a5c1a" opacity="0.8"/>
    <polygon points="0,-10 -6,0 6,0" fill="#227722" opacity="0.8"/>
    <rect x="-1.5" y="0" width="3" height="4" fill="#5c3a1a"/>
    <!-- Tree lights -->
    <circle cx="-3" cy="-5" r="1" fill="#ff3333" opacity="0.9"/>
    <circle cx="3" cy="-8" r="1" fill="#ffdd00" opacity="0.9"/>
    <circle cx="0" cy="-3" r="1" fill="#3388ff" opacity="0.9"/>
    <circle cx="-4" cy="-12" r="1" fill="#ffdd00" opacity="0.9"/>
    <circle cx="4" cy="-14" r="1" fill="#ff3333" opacity="0.9"/>
  </g>

  <!-- Hostage silhouettes on 30th floor -->
  <g opacity="0.4" fill="#1a1a2a">
    <circle cx="295" cy="265" r="3"/>
    <rect x="293" y="268" width="4" height="8" rx="1"/>
    <circle cx="325" cy="266" r="3"/>
    <rect x="323" y="269" width="4" height="7" rx="1"/>
    <circle cx="505" cy="265" r="3"/>
    <rect x="503" y="268" width="4" height="8" rx="1"/>
  </g>

  <!-- Christmas lights string along 30th floor -->
  <g filter="url(#windowGlow)">
    <path d="M 270,257 Q 290,262 310,257 Q 330,262 350,257 Q 370,262 390,257 Q 410,262 430,257 Q 450,262 470,257 Q 490,262 510,257 Q 525,262 530,257" fill="none" stroke="#33aa33" stroke-width="0.8" opacity="0.5"/>
    <circle cx="290" cy="260" r="2" fill="#ff0000" opacity="0.7"/>
    <circle cx="310" cy="257" r="2" fill="#00cc00" opacity="0.7"/>
    <circle cx="330" cy="260" r="2" fill="#ffdd00" opacity="0.7"/>
    <circle cx="350" cy="257" r="2" fill="#ff0000" opacity="0.7"/>
    <circle cx="370" cy="260" r="2" fill="#3388ff" opacity="0.7"/>
    <circle cx="390" cy="257" r="2" fill="#00cc00" opacity="0.7"/>
    <circle cx="410" cy="260" r="2" fill="#ffdd00" opacity="0.7"/>
    <circle cx="430" cy="257" r="2" fill="#ff0000" opacity="0.7"/>
    <circle cx="450" cy="260" r="2" fill="#00cc00" opacity="0.7"/>
    <circle cx="470" cy="257" r="2" fill="#3388ff" opacity="0.7"/>
    <circle cx="490" cy="260" r="2" fill="#ffdd00" opacity="0.7"/>
    <circle cx="510" cy="257" r="2" fill="#ff0000" opacity="0.7"/>
  </g>

  <!-- ==================== RANDOM LIT WINDOWS (other floors) ==================== -->
  <g opacity="0.2" fill="#88aacc">
    <rect x="280" y="316" width="22" height="12" rx="1"/>
    <rect x="460" y="348" width="22" height="12" rx="1"/>
    <rect x="310" y="400" width="22" height="12" rx="1"/>
    <rect x="490" y="456" width="22" height="12" rx="1"/>
    <rect x="280" y="510" width="22" height="12" rx="1"/>
    <rect x="460" y="570" width="22" height="12" rx="1"/>
    <rect x="310" y="625" width="22" height="12" rx="1"/>
    <rect x="490" y="650" width="22" height="12" rx="1"/>
    <rect x="280" y="710" width="22" height="12" rx="1"/>
    <rect x="310" y="760" width="22" height="12" rx="1"/>
    <rect x="490" y="790" width="22" height="12" rx="1"/>
    <rect x="460" y="960" width="22" height="12" rx="1"/>
    <rect x="310" y="1015" width="22" height="12" rx="1"/>
  </g>

  <!-- ==================== VAULT FLOOR (approx floor 5-6 area, y~844-900) ==================== -->
  <!-- Vault room background -->
  <rect x="275" y="848" width="250" height="48" fill="#12151e" opacity="0.7"/>

  <!-- Vault Door -->
  <g transform="translate(360, 850)">
    <!-- Door frame -->
    <rect x="0" y="0" width="80" height="44" fill="url(#vaultDoorGrad)" stroke="#555" stroke-width="2" rx="3"/>
    <!-- Door surface details -->
    <rect x="5" y="5" width="70" height="34" fill="none" stroke="#444" stroke-width="1" rx="2"/>
    <!-- Handle / wheel -->
    <circle cx="60" cy="22" r="10" fill="none" stroke="#666" stroke-width="2"/>
    <line x1="60" y1="14" x2="60" y2="30" stroke="#666" stroke-width="1.5"/>
    <line x1="52" y1="22" x2="68" y2="22" stroke="#666" stroke-width="1.5"/>
    <circle cx="60" cy="22" r="2" fill="#888"/>

    <!-- Seven Seals on the vault door -->
    <g filter="url(#sealGlow)">
      <!-- Seal 1 -->
      <circle cx="12" cy="12" r="4" fill="none" stroke="#d4a843" stroke-width="1.5"/>
      <text x="12" y="14.5" text-anchor="middle" font-family="monospace" font-size="5" fill="#d4a843" font-weight="bold">1</text>
      <!-- Seal 2 -->
      <circle cx="24" cy="12" r="4" fill="none" stroke="#d4a843" stroke-width="1.5"/>
      <text x="24" y="14.5" text-anchor="middle" font-family="monospace" font-size="5" fill="#d4a843" font-weight="bold">2</text>
      <!-- Seal 3 -->
      <circle cx="36" cy="12" r="4" fill="none" stroke="#d4a843" stroke-width="1.5"/>
      <text x="36" y="14.5" text-anchor="middle" font-family="monospace" font-size="5" fill="#d4a843" font-weight="bold">3</text>
      <!-- Seal 4 -->
      <circle cx="12" cy="32" r="4" fill="none" stroke="#d4a843" stroke-width="1.5"/>
      <text x="12" y="34.5" text-anchor="middle" font-family="monospace" font-size="5" fill="#d4a843" font-weight="bold">4</text>
      <!-- Seal 5 -->
      <circle cx="24" cy="32" r="4" fill="none" stroke="#d4a843" stroke-width="1.5"/>
      <text x="24" y="34.5" text-anchor="middle" font-family="monospace" font-size="5" fill="#d4a843" font-weight="bold">5</text>
      <!-- Seal 6 -->
      <circle cx="36" cy="32" r="4" fill="none" stroke="#d4a843" stroke-width="1.5"/>
      <text x="36" y="34.5" text-anchor="middle" font-family="monospace" font-size="5" fill="#d4a843" font-weight="bold">6</text>
      <!-- Seal 7 (special - red) -->
      <circle cx="48" cy="22" r="5" fill="none" stroke="#c9302c" stroke-width="2"/>
      <text x="48" y="24.5" text-anchor="middle" font-family="monospace" font-size="6" fill="#c9302c" font-weight="bold">7</text>
    </g>
  </g>

  <!-- Bearer bonds inside vault (glimpse) -->
  <g transform="translate(290, 858)" opacity="0.5">
    <rect x="0" y="0" width="20" height="12" fill="#2a5c2a" rx="1"/>
    <rect x="2" y="2" width="16" height="8" fill="none" stroke="#3a7a3a" stroke-width="0.5"/>
    <text x="10" y="9" text-anchor="middle" font-family="monospace" font-size="4" fill="#4a9a4a">$$$</text>
    <rect x="22" y="2" width="20" height="12" fill="#2a5c2a" rx="1"/>
    <rect x="24" y="4" width="16" height="8" fill="none" stroke="#3a7a3a" stroke-width="0.5"/>
    <text x="32" y="11" text-anchor="middle" font-family="monospace" font-size="4" fill="#4a9a4a">$$$</text>
  </g>

  <!-- Power cable near vault (Seal 7 hint) -->
  <g opacity="0.7">
    <path d="M 530,870 L 555,870 L 555,885 L 565,885" fill="none" stroke="#cc0000" stroke-width="2.5" stroke-dasharray="none"/>
    <rect x="565" y="880" width="14" height="10" fill="#333" stroke="#555" stroke-width="1" rx="2"/>
    <text x="572" y="888" text-anchor="middle" font-family="monospace" font-size="5" fill="#cc0000">PWR</text>
  </g>

  <!-- ==================== LOBBY (ground floor, y~1040-1098) ==================== -->
  <!-- Lobby entrance -->
  <rect x="360" y="1068" width="80" height="30" fill="#1a2035" stroke="#3a4a6a" stroke-width="1"/>
  <!-- Revolving door -->
  <circle cx="400" cy="1083" r="10" fill="none" stroke="#4a6a8a" stroke-width="1"/>
  <line x1="400" y1="1073" x2="400" y2="1093" stroke="#4a6a8a" stroke-width="0.8"/>
  <line x1="390" y1="1083" x2="410" y2="1083" stroke="#4a6a8a" stroke-width="0.8"/>
  <!-- Lobby warm light -->
  <rect x="275" y="1072" width="80" height="22" fill="#ffcc44" opacity="0.15" rx="1"/>
  <rect x="445" y="1072" width="80" height="22" fill="#ffcc44" opacity="0.15" rx="1"/>
  <!-- "NAKATOMI" sign above entrance -->
  <rect x="340" y="1060" width="120" height="12" fill="#1a2035"/>

  <!-- ==================== PARKING GARAGE (below ground) ==================== -->
  <rect x="270" y="1098" width="260" height="60" fill="#0d1018" stroke="#1a2035" stroke-width="1"/>
  <!-- Garage floor line -->
  <line x1="270" y1="1128" x2="530" y2="1128" stroke="#1a2035" stroke-width="0.5"/>
  <!-- Parking spots -->
  <line x1="320" y1="1098" x2="320" y2="1128" stroke="#1a2035" stroke-width="0.5"/>
  <line x1="370" y1="1098" x2="370" y2="1128" stroke="#1a2035" stroke-width="0.5"/>
  <line x1="430" y1="1098" x2="430" y2="1128" stroke="#1a2035" stroke-width="0.5"/>
  <line x1="480" y1="1098" x2="480" y2="1128" stroke="#1a2035" stroke-width="0.5"/>

  <!-- Argyle's Limo -->
  <g transform="translate(335, 1105)">
    <rect x="0" y="8" width="80" height="16" fill="#111" rx="4"/>
    <rect x="5" y="3" width="25" height="12" fill="#111" rx="3"/>
    <rect x="35" y="3" width="30" height="12" fill="#111" rx="3"/>
    <!-- Windows -->
    <rect x="7" y="5" width="10" height="6" fill="#1a2a44" rx="1" opacity="0.7"/>
    <rect x="19" y="5" width="8" height="6" fill="#1a2a44" rx="1" opacity="0.7"/>
    <rect x="37" y="5" width="12" height="6" fill="#1a2a44" rx="1" opacity="0.7"/>
    <rect x="51" y="5" width="12" height="6" fill="#1a2a44" rx="1" opacity="0.7"/>
    <!-- Wheels -->
    <circle cx="18" cy="24" r="5" fill="#222" stroke="#333" stroke-width="1"/>
    <circle cx="18" cy="24" r="2" fill="#444"/>
    <circle cx="62" cy="24" r="5" fill="#222" stroke="#333" stroke-width="1"/>
    <circle cx="62" cy="24" r="2" fill="#444"/>
    <!-- Headlights -->
    <rect x="-2" y="12" width="3" height="4" fill="#ffdd88" opacity="0.5" rx="1"/>
    <rect x="79" y="12" width="3" height="4" fill="#ff3333" opacity="0.4" rx="1"/>
  </g>

  <!-- ==================== CHARACTERS ==================== -->

  <!-- HANS GRUBER (near vault) -->
  <g transform="translate(470, 856)">
    <!-- Body -->
    <rect x="-5" y="8" width="10" height="18" fill="#2a2a3a" rx="2"/>
    <!-- Head -->
    <circle cx="0" cy="4" r="6" fill="#d4a07a"/>
    <!-- Hair -->
    <path d="M -5,1 Q -6,-3 -3,-5 Q 0,-6 3,-5 Q 6,-3 5,1" fill="#3a2a1a"/>
    <!-- Suit details -->
    <line x1="0" y1="8" x2="0" y2="20" stroke="#1a1a2a" stroke-width="0.8"/>
    <!-- Arms -->
    <line x1="-5" y1="12" x2="-10" y2="20" stroke="#2a2a3a" stroke-width="3"/>
    <line x1="5" y1="12" x2="10" y2="20" stroke="#2a2a3a" stroke-width="3"/>
    <!-- Legs -->
    <line x1="-2" y1="26" x2="-3" y2="36" stroke="#2a2a3a" stroke-width="3"/>
    <line x1="2" y1="26" x2="3" y2="36" stroke="#2a2a3a" stroke-width="3"/>
    <!-- Shoes -->
    <rect x="-5" y="34" width="5" height="3" fill="#111" rx="1"/>
    <rect x="1" y="34" width="5" height="3" fill="#111" rx="1"/>
  </g>

  <!-- McCLANE (in the HVAC ducts, between floors) -->
  <g transform="translate(300, 450)">
    <!-- Duct context -->
    <rect x="-15" y="-5" width="35" height="14" fill="#2a3a4a" opacity="0.4" rx="2"/>
    <!-- Body (crawling) -->
    <ellipse cx="0" cy="2" rx="12" ry="4" fill="#5a7a5a"/>
    <!-- Head -->
    <circle cx="-10" cy="0" r="5" fill="#d4a07a"/>
    <!-- Undershirt (tank top) -->
    <rect x="-6" y="-2" width="14" height="8" fill="#888" rx="1" opacity="0.6"/>
    <!-- Arms forward -->
    <line x1="-14" y1="2" x2="-20" y2="0" stroke="#d4a07a" stroke-width="2.5"/>
    <!-- Bare feet (no shoes!) -->
    <ellipse cx="12" cy="4" rx="3" ry="2" fill="#d4a07a"/>
  </g>

  <!-- ARGYLE (in the garage, by the limo) -->
  <g transform="translate(435, 1108)">
    <!-- Head -->
    <circle cx="0" cy="0" r="5" fill="#8b6b4a"/>
    <!-- Cap -->
    <path d="M -5,-2 Q -5,-6 0,-6 Q 5,-6 5,-2" fill="#cc0000"/>
    <rect x="-6" y="-3" width="12" height="2" fill="#cc0000" rx="1"/>
    <!-- Body -->
    <rect x="-4" y="5" width="8" height="12" fill="#3a3a8a" rx="2"/>
    <!-- Headphones -->
    <path d="M -5,-2 Q -8,-2 -8,2" fill="none" stroke="#333" stroke-width="1.5"/>
    <path d="M 5,-2 Q 8,-2 8,2" fill="none" stroke="#333" stroke-width="1.5"/>
    <circle cx="-8" cy="2" r="2" fill="#333"/>
    <circle cx="8" cy="2" r="2" fill="#333"/>
  </g>

  <!-- ==================== LABELS ==================== -->

  <!-- Title -->
  <text x="400" y="105" text-anchor="middle" font-family="'Helvetica Neue', Arial, sans-serif" font-size="22" fill="#d4a843" font-weight="bold" letter-spacing="3" filter="url(#labelGlow)">NAKATOMI PLAZA</text>

  <!-- Nakatomi sign on building -->
  <text x="400" y="1069" text-anchor="middle" font-family="'Helvetica Neue', Arial, sans-serif" font-size="7" fill="#8899bb" font-weight="bold" letter-spacing="4">NAKATOMI</text>

  <!-- Floor labels (right side) -->
  <g font-family="'SF Mono', 'Fira Code', monospace" font-size="9" fill="#58a6ff" opacity="0.85" filter="url(#labelGlow)">
    <!-- Roof -->
    <line x1="535" y1="195" x2="570" y2="195" stroke="#58a6ff" stroke-width="0.5" opacity="0.5"/>
    <text x="575" y="198">ROOF</text>
    <text x="575" y="210" font-size="7" fill="#8b949e">C4 / Helipad</text>

    <!-- 30th Floor -->
    <line x1="535" y1="270" x2="570" y2="270" stroke="#58a6ff" stroke-width="0.5" opacity="0.5"/>
    <text x="575" y="268">30TH FLOOR</text>
    <text x="575" y="280" font-size="7" fill="#8b949e">Christmas Party</text>
    <text x="575" y="290" font-size="7" fill="#8b949e">Hostages / Holly</text>

    <!-- Vault -->
    <line x1="535" y1="870" x2="570" y2="870" stroke="#d4a843" stroke-width="0.5" opacity="0.7"/>
    <text x="575" y="862" fill="#d4a843">VAULT FLOOR</text>
    <text x="575" y="874" font-size="7" fill="#8b949e">7 Seals</text>
    <text x="575" y="884" font-size="7" fill="#8b949e">Bearer Bonds</text>

    <!-- Lobby -->
    <line x1="535" y1="1080" x2="570" y2="1080" stroke="#58a6ff" stroke-width="0.5" opacity="0.5"/>
    <text x="575" y="1078">LOBBY</text>
    <text x="575" y="1090" font-size="7" fill="#8b949e">Phase 1: Entry</text>

    <!-- Garage -->
    <line x1="535" y1="1120" x2="570" y2="1120" stroke="#58a6ff" stroke-width="0.5" opacity="0.5"/>
    <text x="575" y="1118">GARAGE</text>
    <text x="575" y="1130" font-size="7" fill="#8b949e">Argyle's Limo</text>
  </g>

  <!-- Floor labels (left side) -->
  <g font-family="'SF Mono', 'Fira Code', monospace" font-size="9" fill="#8b949e" opacity="0.8">
    <!-- HVAC label -->
    <text x="225" y="345" text-anchor="end" fill="#3fb950" font-size="8">HVAC DUCTS</text>
    <line x1="228" y1="342" x2="268" y2="342" stroke="#3fb950" stroke-width="0.5" opacity="0.5"/>

    <!-- McClane -->
    <text x="225" y="448" text-anchor="end" fill="#ff8844" font-size="8">McCLANE</text>
    <text x="225" y="458" text-anchor="end" fill="#8b949e" font-size="7">"Barefoot cop"</text>
    <line x1="228" y1="452" x2="268" y2="452" stroke="#ff8844" stroke-width="0.5" opacity="0.5"/>

    <!-- Elevators -->
    <text x="225" y="680" text-anchor="end" fill="#8b949e" font-size="8">ELEVATORS</text>
    <line x1="228" y1="678" x2="268" y2="678" stroke="#8b949e" stroke-width="0.5" opacity="0.3"/>

    <!-- Hans label -->
    <text x="225" y="870" text-anchor="end" fill="#c9302c" font-size="8">HANS GRUBER</text>
    <text x="225" y="880" text-anchor="end" fill="#8b949e" font-size="7">"Exceptional thief"</text>
    <line x1="228" y1="868" x2="268" y2="868" stroke="#c9302c" stroke-width="0.5" opacity="0.5"/>

    <!-- Power cable -->
    <text x="225" y="900" text-anchor="end" fill="#cc0000" font-size="7">POWER CABLE</text>
    <text x="225" y="910" text-anchor="end" fill="#8b949e" font-size="6">"Seal 7: unplug?"</text>
  </g>

  <!-- Character name tags -->
  <g font-family="'SF Mono', 'Fira Code', monospace" font-size="7" fill="#d4a843">
    <text x="470" y="900" text-anchor="middle">Hans</text>
    <text x="435" y="1138" text-anchor="middle">Argyle</text>
  </g>

  <!-- ==================== TAGLINE ==================== -->
  <text x="400" y="1175" text-anchor="middle" font-family="'Helvetica Neue', Arial, sans-serif" font-size="12" fill="#8b949e" font-style="italic" opacity="0.7">"Now I have a SPL. Ho-ho-ho."</text>
  <text x="400" y="1192" text-anchor="middle" font-family="'Helvetica Neue', Arial, sans-serif" font-size="9" fill="#58a6ff" opacity="0.5">Splunk-Powered Inverse Escape Room</text>

</svg>
