<svg xmlns="http://www.w3.org/2000/svg" viewBox="0 0 1400 1800" width="1400" height="1800">
  <defs>
    <linearGradient id="panelGrad" x1="0" y1="0" x2="0" y2="1">
      <stop offset="0%" stop-color="#3a3a3a"/>
      <stop offset="100%" stop-color="#222"/>
    </linearGradient>
    <linearGradient id="backGrad" x1="0" y1="0" x2="0" y2="1">
      <stop offset="0%" stop-color="#1a1a2a"/>
      <stop offset="100%" stop-color="#111"/>
    </linearGradient>
    <linearGradient id="pcbGrad" x1="0" y1="0" x2="1" y2="1">
      <stop offset="0%" stop-color="#1a5c1a"/>
      <stop offset="100%" stop-color="#0f3f0f"/>
    </linearGradient>
    <filter id="glow" x="-30%" y="-30%" width="160%" height="160%">
      <feGaussianBlur stdDeviation="2" result="blur"/>
      <feMerge><feMergeNode in="blur"/><feMergeNode in="SourceGraphic"/></feMerge>
    </filter>
    <filter id="shadow">
      <feDropShadow dx="2" dy="2" stdDeviation="3" flood-color="#000" flood-opacity="0.4"/>
    </filter>
    <marker id="arrowRed" markerWidth="8" markerHeight="6" refX="8" refY="3" orient="auto">
      <polygon points="0,0 8,3 0,6" fill="#c9302c"/>
    </marker>
    <marker id="arrowBlue" markerWidth="8" markerHeight="6" refX="8" refY="3" orient="auto">
      <polygon points="0,0 8,3 0,6" fill="#58a6ff"/>
    </marker>
    <marker id="arrowGreen" markerWidth="8" markerHeight="6" refX="8" refY="3" orient="auto">
      <polygon points="0,0 8,3 0,6" fill="#3fb950"/>
    </marker>
    <marker id="arrowOrange" markerWidth="8" markerHeight="6" refX="8" refY="3" orient="auto">
      <polygon points="0,0 8,3 0,6" fill="#d29922"/>
    </marker>
    <marker id="arrowGray" markerWidth="8" markerHeight="6" refX="8" refY="3" orient="auto">
      <polygon points="0,0 8,3 0,6" fill="#8b949e"/>
    </marker>
  </defs>

  <!-- Background -->
  <rect width="1400" height="1800" fill="#0d1117"/>

  <!-- ================================================================ -->
  <!-- TITLE -->
  <!-- ================================================================ -->
  <text x="700" y="45" text-anchor="middle" font-family="'Helvetica Neue', Arial, sans-serif" font-size="28" fill="#d4a843" font-weight="bold" letter-spacing="2">NAKATOMI VAULT  -  PHYSICAL MODEL</text>
  <text x="700" y="72" text-anchor="middle" font-family="'Helvetica Neue', Arial, sans-serif" font-size="14" fill="#8b949e">Component Placement, Wiring, and Assembly Diagram</text>

  <!-- ================================================================ -->
  <!-- SECTION 1: FRONT VIEW -->
  <!-- ================================================================ -->
  <text x="350" y="120" text-anchor="middle" font-family="'Helvetica Neue', Arial, sans-serif" font-size="20" fill="#58a6ff" font-weight="bold">FRONT VIEW (Player Side)</text>
  <text x="350" y="142" text-anchor="middle" font-family="monospace" font-size="11" fill="#8b949e">400mm x 300mm vault panel</text>

  <!-- Vault panel front -->
  <rect x="100" y="160" width="500" height="380" fill="url(#panelGrad)" stroke="#555" stroke-width="2" rx="8" filter="url(#shadow)"/>

  <!-- Panel frame border (decorative) -->
  <rect x="108" y="168" width="484" height="364" fill="none" stroke="#444" stroke-width="1" rx="4"/>

  <!-- === SEAL POSITIONS (front face) === -->

  <!-- Seal 1 -->
  <g transform="translate(155, 210)">
    <circle cx="0" cy="0" r="28" fill="#2a2a2a" stroke="#555" stroke-width="2"/>
    <circle cx="0" cy="0" r="20" fill="#1a1a1a" stroke="#444" stroke-width="1"/>
    <text x="0" y="5" text-anchor="middle" font-family="monospace" font-size="14" fill="#d4a843" font-weight="bold">1</text>
    <!-- NeoPixel LED above -->
    <circle cx="0" cy="-38" r="5" fill="#cc3333" stroke="#555" stroke-width="1" filter="url(#glow)"/>
    <text x="0" y="-48" text-anchor="middle" font-family="monospace" font-size="7" fill="#8b949e">LED</text>
  </g>

  <!-- Seal 2 -->
  <g transform="translate(235, 210)">
    <circle cx="0" cy="0" r="28" fill="#2a2a2a" stroke="#555" stroke-width="2"/>
    <circle cx="0" cy="0" r="20" fill="#1a1a1a" stroke="#444" stroke-width="1"/>
    <text x="0" y="5" text-anchor="middle" font-family="monospace" font-size="14" fill="#d4a843" font-weight="bold">2</text>
    <circle cx="0" cy="-38" r="5" fill="#cc3333" stroke="#555" stroke-width="1" filter="url(#glow)"/>
    <text x="0" y="-48" text-anchor="middle" font-family="monospace" font-size="7" fill="#8b949e">LED</text>
  </g>

  <!-- Seal 3 -->
  <g transform="translate(315, 210)">
    <circle cx="0" cy="0" r="28" fill="#2a2a2a" stroke="#666" stroke-width="2.5"/>
    <circle cx="0" cy="0" r="20" fill="#1a1a1a" stroke="#555" stroke-width="1"/>
    <text x="0" y="5" text-anchor="middle" font-family="monospace" font-size="14" fill="#d4a843" font-weight="bold">3</text>
    <circle cx="0" cy="-38" r="5" fill="#cc3333" stroke="#555" stroke-width="1" filter="url(#glow)"/>
    <text x="0" y="-48" text-anchor="middle" font-family="monospace" font-size="7" fill="#8b949e">LED</text>
  </g>

  <!-- Seal 4 -->
  <g transform="translate(395, 210)">
    <circle cx="0" cy="0" r="28" fill="#2a2a2a" stroke="#666" stroke-width="2.5"/>
    <circle cx="0" cy="0" r="20" fill="#1a1a1a" stroke="#555" stroke-width="1"/>
    <text x="0" y="5" text-anchor="middle" font-family="monospace" font-size="14" fill="#d4a843" font-weight="bold">4</text>
    <circle cx="0" cy="-38" r="5" fill="#cc3333" stroke="#555" stroke-width="1" filter="url(#glow)"/>
    <text x="0" y="-48" text-anchor="middle" font-family="monospace" font-size="7" fill="#8b949e">LED</text>
  </g>

  <!-- Seal 5 -->
  <g transform="translate(475, 210)">
    <circle cx="0" cy="0" r="28" fill="#2a2a2a" stroke="#666" stroke-width="2.5"/>
    <circle cx="0" cy="0" r="20" fill="#1a1a1a" stroke="#555" stroke-width="1"/>
    <text x="0" y="5" text-anchor="middle" font-family="monospace" font-size="14" fill="#d4a843" font-weight="bold">5</text>
    <circle cx="0" cy="-38" r="5" fill="#cc3333" stroke="#555" stroke-width="1" filter="url(#glow)"/>
    <text x="0" y="-48" text-anchor="middle" font-family="monospace" font-size="7" fill="#8b949e">LED</text>
  </g>

  <!-- Seal 6 (larger, mag lock) -->
  <g transform="translate(235, 310)">
    <circle cx="0" cy="0" r="34" fill="#2a2a2a" stroke="#777" stroke-width="3"/>
    <circle cx="0" cy="0" r="24" fill="#1a1a1a" stroke="#555" stroke-width="1.5"/>
    <text x="0" y="6" text-anchor="middle" font-family="monospace" font-size="16" fill="#d4a843" font-weight="bold">6</text>
    <circle cx="0" cy="-44" r="5" fill="#cc3333" stroke="#555" stroke-width="1" filter="url(#glow)"/>
    <text x="0" y="-54" text-anchor="middle" font-family="monospace" font-size="7" fill="#8b949e">LED</text>
  </g>

  <!-- Seal 7 (special, red accent) -->
  <g transform="translate(395, 310)">
    <circle cx="0" cy="0" r="34" fill="#2a1515" stroke="#c9302c" stroke-width="3"/>
    <circle cx="0" cy="0" r="24" fill="#1a0a0a" stroke="#993333" stroke-width="1.5"/>
    <text x="0" y="6" text-anchor="middle" font-family="monospace" font-size="16" fill="#c9302c" font-weight="bold">7</text>
    <circle cx="0" cy="-44" r="5" fill="#c9302c" stroke="#555" stroke-width="1" filter="url(#glow)"/>
    <text x="0" y="-54" text-anchor="middle" font-family="monospace" font-size="7" fill="#c9302c">LED</text>
    <text x="0" y="50" text-anchor="middle" font-family="monospace" font-size="8" fill="#c9302c">META</text>
  </g>

  <!-- LCD Display -->
  <g transform="translate(140, 400)">
    <rect x="0" y="0" width="180" height="55" fill="#0a2a0a" stroke="#555" stroke-width="1.5" rx="3"/>
    <rect x="5" y="5" width="170" height="45" fill="#1a3a1a" rx="2"/>
    <text x="90" y="20" text-anchor="middle" font-family="monospace" font-size="8" fill="#33cc33">NAKATOMI VAULT</text>
    <text x="90" y="30" text-anchor="middle" font-family="monospace" font-size="8" fill="#33cc33">SEAL 1: ENTER CODE</text>
    <text x="90" y="40" text-anchor="middle" font-family="monospace" font-size="8" fill="#33cc33">CODE: ____</text>
    <text x="90" y="60" text-anchor="middle" font-family="monospace" font-size="7" fill="#8b949e">LCD 20x4 (I2C)</text>
  </g>

  <!-- Keypad -->
  <g transform="translate(365, 390)">
    <rect x="0" y="0" width="100" height="120" fill="#333" stroke="#555" stroke-width="1.5" rx="4"/>
    <!-- Key grid -->
    <g fill="#444" stroke="#555" stroke-width="0.5">
      <rect x="8" y="8" width="18" height="14" rx="2"/><rect x="30" y="8" width="18" height="14" rx="2"/>
      <rect x="52" y="8" width="18" height="14" rx="2"/><rect x="74" y="8" width="18" height="14" rx="2"/>
      <rect x="8" y="30" width="18" height="14" rx="2"/><rect x="30" y="30" width="18" height="14" rx="2"/>
      <rect x="52" y="30" width="18" height="14" rx="2"/><rect x="74" y="30" width="18" height="14" rx="2"/>
      <rect x="8" y="52" width="18" height="14" rx="2"/><rect x="30" y="52" width="18" height="14" rx="2"/>
      <rect x="52" y="52" width="18" height="14" rx="2"/><rect x="74" y="52" width="18" height="14" rx="2"/>
      <rect x="8" y="74" width="18" height="14" rx="2"/><rect x="30" y="74" width="18" height="14" rx="2"/>
      <rect x="52" y="74" width="18" height="14" rx="2"/><rect x="74" y="74" width="18" height="14" rx="2"/>
    </g>
    <!-- Key labels -->
    <g font-family="monospace" font-size="7" fill="#aaa" text-anchor="middle">
      <text x="17" y="19">1</text><text x="39" y="19">2</text><text x="61" y="19">3</text><text x="83" y="19">A</text>
      <text x="17" y="41">4</text><text x="39" y="41">5</text><text x="61" y="41">6</text><text x="83" y="41">B</text>
      <text x="17" y="63">7</text><text x="39" y="63">8</text><text x="61" y="63">9</text><text x="83" y="63">C</text>
      <text x="17" y="85">*</text><text x="39" y="85">0</text><text x="61" y="85">#</text><text x="83" y="85">D</text>
    </g>
    <text x="50" y="104" text-anchor="middle" font-family="monospace" font-size="7" fill="#aaa">4x4 KEYPAD</text>
    <text x="50" y="115" text-anchor="middle" font-family="monospace" font-size="6" fill="#666"># = SUBMIT  * = CLEAR</text>
  </g>

  <!-- Barrel jack (bottom right of panel) -->
  <g transform="translate(530, 490)">
    <circle cx="0" cy="0" r="10" fill="#333" stroke="#555" stroke-width="1.5"/>
    <circle cx="0" cy="0" r="4" fill="#222" stroke="#444" stroke-width="1"/>
    <text x="0" y="20" text-anchor="middle" font-family="monospace" font-size="7" fill="#c9302c">12V DC IN</text>
    <text x="0" y="28" text-anchor="middle" font-family="monospace" font-size="6" fill="#8b949e">(barrel jack)</text>
  </g>

  <!-- Buzzer (small circle, bottom left) -->
  <g transform="translate(130, 490)">
    <circle cx="0" cy="0" r="8" fill="#333" stroke="#555" stroke-width="1"/>
    <circle cx="0" cy="0" r="3" fill="#444"/>
    <text x="0" y="16" text-anchor="middle" font-family="monospace" font-size="7" fill="#8b949e">BUZZER</text>
  </g>

  <!-- Front view annotations -->
  <g font-family="monospace" font-size="9" fill="#58a6ff">
    <!-- Seal type labels -->
    <text x="195" y="252" text-anchor="middle">Servo locks</text>
    <line x1="155" y1="242" x2="235" y2="242" stroke="#58a6ff" stroke-width="0.5" stroke-dasharray="3,3"/>
    <text x="395" y="252" text-anchor="middle">Solenoid locks</text>
    <line x1="315" y1="242" x2="475" y2="242" stroke="#58a6ff" stroke-width="0.5" stroke-dasharray="3,3"/>
    <text x="235" y="360" text-anchor="middle" fill="#58a6ff">Mag lock</text>
    <text x="395" y="375" text-anchor="middle" fill="#c9302c">Power-loss latch</text>
  </g>

  <!-- Dimensions -->
  <g stroke="#555" stroke-width="0.8" fill="#555">
    <!-- Width -->
    <line x1="100" y1="555" x2="600" y2="555"/>
    <line x1="100" y1="550" x2="100" y2="560"/>
    <line x1="600" y1="550" x2="600" y2="560"/>
    <text x="350" y="570" text-anchor="middle" font-family="monospace" font-size="10">400 mm</text>
    <!-- Height -->
    <line x1="620" y1="160" x2="620" y2="540"/>
    <line x1="615" y1="160" x2="625" y2="160"/>
    <line x1="615" y1="540" x2="625" y2="540"/>
    <text x="638" y="355" text-anchor="start" font-family="monospace" font-size="10" transform="rotate(90,638,355)">300 mm</text>
  </g>

  <!-- ================================================================ -->
  <!-- SECTION 2: BACK VIEW (Electronics Side) -->
  <!-- ================================================================ -->
  <text x="1050" y="120" text-anchor="middle" font-family="'Helvetica Neue', Arial, sans-serif" font-size="20" fill="#3fb950" font-weight="bold">BACK VIEW (Electronics Side)</text>
  <text x="1050" y="142" text-anchor="middle" font-family="monospace" font-size="11" fill="#8b949e">Component placement behind the panel</text>

  <!-- Back panel -->
  <rect x="800" y="160" width="500" height="380" fill="url(#backGrad)" stroke="#444" stroke-width="2" rx="8" filter="url(#shadow)"/>

  <!-- ESP32 DevKit -->
  <g transform="translate(830, 180)">
    <rect x="0" y="0" width="60" height="110" fill="url(#pcbGrad)" stroke="#2a7a2a" stroke-width="1.5" rx="3"/>
    <rect x="20" y="-8" width="20" height="12" fill="#555" stroke="#666" stroke-width="1" rx="2"/>
    <text x="30" y="20" text-anchor="middle" font-family="monospace" font-size="8" fill="#aaffaa" font-weight="bold">ESP32</text>
    <text x="30" y="32" text-anchor="middle" font-family="monospace" font-size="6" fill="#88cc88">DevKit V1</text>
    <!-- Pin rows -->
    <g fill="#d4a843" font-family="monospace" font-size="5">
      <rect x="-4" y="42" width="8" height="3" rx="1"/><text x="-10" y="46" text-anchor="end" fill="#8b949e">3V3</text>
      <rect x="-4" y="49" width="8" height="3" rx="1"/><text x="-10" y="53" text-anchor="end" fill="#8b949e">GND</text>
      <rect x="-4" y="56" width="8" height="3" rx="1"/><text x="-10" y="60" text-anchor="end" fill="#8b949e">G15</text>
      <rect x="-4" y="63" width="8" height="3" rx="1"/><text x="-10" y="67" text-anchor="end" fill="#8b949e">G13</text>
      <rect x="-4" y="70" width="8" height="3" rx="1"/><text x="-10" y="74" text-anchor="end" fill="#8b949e">G12</text>
      <rect x="-4" y="77" width="8" height="3" rx="1"/><text x="-10" y="81" text-anchor="end" fill="#8b949e">G14</text>
      <rect x="-4" y="84" width="8" height="3" rx="1"/><text x="-10" y="88" text-anchor="end" fill="#8b949e">G27</text>
      <rect x="-4" y="91" width="8" height="3" rx="1"/><text x="-10" y="95" text-anchor="end" fill="#8b949e">G26</text>
      <rect x="56" y="42" width="8" height="3" rx="1"/><text x="70" y="46" fill="#8b949e">VIN</text>
      <rect x="56" y="49" width="8" height="3" rx="1"/><text x="70" y="53" fill="#8b949e">GND</text>
      <rect x="56" y="56" width="8" height="3" rx="1"/><text x="70" y="60" fill="#8b949e">G23</text>
      <rect x="56" y="63" width="8" height="3" rx="1"/><text x="70" y="67" fill="#8b949e">G22</text>
      <rect x="56" y="70" width="8" height="3" rx="1"/><text x="70" y="74" fill="#8b949e">G21</text>
      <rect x="56" y="77" width="8" height="3" rx="1"/><text x="70" y="81" fill="#8b949e">G19</text>
      <rect x="56" y="84" width="8" height="3" rx="1"/><text x="70" y="88" fill="#8b949e">G18</text>
      <rect x="56" y="91" width="8" height="3" rx="1"/><text x="70" y="95" fill="#8b949e">G5</text>
    </g>
    <!-- WiFi antenna symbol -->
    <text x="30" y="108" text-anchor="middle" font-family="monospace" font-size="7" fill="#58a6ff">WiFi</text>
  </g>

  <!-- MOSFET Driver Board (Seals 3-5) -->
  <g transform="translate(950, 180)">
    <rect x="0" y="0" width="120" height="70" fill="#1a3a1a" stroke="#2a7a2a" stroke-width="1.5" rx="3"/>
    <text x="60" y="16" text-anchor="middle" font-family="monospace" font-size="8" fill="#aaffaa" font-weight="bold">MOSFET DRIVER</text>
    <text x="60" y="28" text-anchor="middle" font-family="monospace" font-size="7" fill="#88cc88">3x IRLZ44N</text>
    <!-- MOSFETs -->
    <rect x="10" y="35" width="25" height="20" fill="#222" stroke="#555" stroke-width="1" rx="2"/>
    <text x="22" y="48" text-anchor="middle" font-family="monospace" font-size="6" fill="#aaa">Q1</text>
    <rect x="45" y="35" width="25" height="20" fill="#222" stroke="#555" stroke-width="1" rx="2"/>
    <text x="57" y="48" text-anchor="middle" font-family="monospace" font-size="6" fill="#aaa">Q2</text>
    <rect x="80" y="35" width="25" height="20" fill="#222" stroke="#555" stroke-width="1" rx="2"/>
    <text x="92" y="48" text-anchor="middle" font-family="monospace" font-size="6" fill="#aaa">Q3</text>
    <!-- Flyback diodes -->
    <text x="60" y="66" text-anchor="middle" font-family="monospace" font-size="6" fill="#d29922">+ 3x 1N4007 flyback</text>
  </g>

  <!-- Relay Modules (Seal 6 + Seal 7) -->
  <g transform="translate(1100, 180)">
    <rect x="0" y="0" width="80" height="70" fill="#1a1a3a" stroke="#4444aa" stroke-width="1.5" rx="3"/>
    <text x="40" y="16" text-anchor="middle" font-family="monospace" font-size="8" fill="#aaaaff" font-weight="bold">RELAYS</text>
    <text x="40" y="28" text-anchor="middle" font-family="monospace" font-size="7" fill="#8888cc">2x 5V module</text>
    <!-- Relay boxes -->
    <rect x="8" y="35" width="25" height="25" fill="#222" stroke="#4444aa" stroke-width="1" rx="2"/>
    <text x="20" y="48" text-anchor="middle" font-family="monospace" font-size="6" fill="#aaa">S6</text>
    <text x="20" y="56" text-anchor="middle" font-family="monospace" font-size="5" fill="#666">MAG</text>
    <rect x="45" y="35" width="25" height="25" fill="#222" stroke="#c9302c" stroke-width="1.5" rx="2"/>
    <text x="57" y="48" text-anchor="middle" font-family="monospace" font-size="6" fill="#c9302c">S7</text>
    <text x="57" y="56" text-anchor="middle" font-family="monospace" font-size="5" fill="#993333">PWR</text>
  </g>

  <!-- 5V Regulator -->
  <g transform="translate(950, 280)">
    <rect x="0" y="0" width="80" height="40" fill="#3a1a1a" stroke="#aa4444" stroke-width="1.5" rx="3"/>
    <text x="40" y="16" text-anchor="middle" font-family="monospace" font-size="8" fill="#ffaaaa" font-weight="bold">5V REG</text>
    <text x="40" y="28" text-anchor="middle" font-family="monospace" font-size="7" fill="#cc8888">MP1584 buck</text>
    <text x="40" y="38" text-anchor="middle" font-family="monospace" font-size="6" fill="#996666">12V  >  5V</text>
  </g>

  <!-- Inline Fuse -->
  <g transform="translate(1070, 280)">
    <rect x="0" y="0" width="60" height="40" fill="#3a3a1a" stroke="#aaaa44" stroke-width="1.5" rx="3"/>
    <text x="30" y="16" text-anchor="middle" font-family="monospace" font-size="8" fill="#ffffaa" font-weight="bold">FUSE</text>
    <text x="30" y="28" text-anchor="middle" font-family="monospace" font-size="7" fill="#cccc88">2A blade</text>
    <text x="30" y="38" text-anchor="middle" font-family="monospace" font-size="6" fill="#999966">inline</text>
  </g>

  <!-- 9V Battery backup -->
  <g transform="translate(1160, 280)">
    <rect x="0" y="0" width="55" height="40" fill="#1a2a1a" stroke="#44aa44" stroke-width="1.5" rx="3"/>
    <text x="28" y="16" text-anchor="middle" font-family="monospace" font-size="7" fill="#aaffaa" font-weight="bold">9V BAT</text>
    <text x="28" y="28" text-anchor="middle" font-family="monospace" font-size="6" fill="#88cc88">backup</text>
    <text x="28" y="38" text-anchor="middle" font-family="monospace" font-size="6" fill="#669966">+ diode</text>
  </g>

  <!-- Solenoid positions (behind panel, top row corresponds to seals 3-5) -->
  <g transform="translate(950, 345)">
    <rect x="0" y="0" width="40" height="55" fill="#333" stroke="#666" stroke-width="1" rx="2"/>
    <text x="20" y="16" text-anchor="middle" font-family="monospace" font-size="7" fill="#d29922" font-weight="bold">SOL 3</text>
    <rect x="2" y="22" width="36" height="8" fill="#555" rx="1"/>
    <rect x="14" y="32" width="12" height="20" fill="#444" stroke="#666" stroke-width="1" rx="1"/>
    <text x="20" y="46" text-anchor="middle" font-family="monospace" font-size="5" fill="#aaa">bolt</text>
  </g>
  <g transform="translate(1000, 345)">
    <rect x="0" y="0" width="40" height="55" fill="#333" stroke="#666" stroke-width="1" rx="2"/>
    <text x="20" y="16" text-anchor="middle" font-family="monospace" font-size="7" fill="#d29922" font-weight="bold">SOL 4</text>
    <rect x="2" y="22" width="36" height="8" fill="#555" rx="1"/>
    <rect x="14" y="32" width="12" height="20" fill="#444" stroke="#666" stroke-width="1" rx="1"/>
    <text x="20" y="46" text-anchor="middle" font-family="monospace" font-size="5" fill="#aaa">bolt</text>
  </g>
  <g transform="translate(1050, 345)">
    <rect x="0" y="0" width="40" height="55" fill="#333" stroke="#666" stroke-width="1" rx="2"/>
    <text x="20" y="16" text-anchor="middle" font-family="monospace" font-size="7" fill="#d29922" font-weight="bold">SOL 5</text>
    <rect x="2" y="22" width="36" height="8" fill="#555" rx="1"/>
    <rect x="14" y="32" width="12" height="20" fill="#444" stroke="#666" stroke-width="1" rx="1"/>
    <text x="20" y="46" text-anchor="middle" font-family="monospace" font-size="5" fill="#aaa">bolt</text>
  </g>

  <!-- Servo positions (behind panel, seals 1-2) -->
  <g transform="translate(830, 345)">
    <rect x="0" y="0" width="40" height="30" fill="#2a2a4a" stroke="#6666cc" stroke-width="1" rx="2"/>
    <text x="20" y="12" text-anchor="middle" font-family="monospace" font-size="7" fill="#aaaaff" font-weight="bold">SRV 1</text>
    <rect x="30" y="8" width="18" height="4" fill="#6666cc" rx="1"/>
    <text x="20" y="26" text-anchor="middle" font-family="monospace" font-size="5" fill="#8888cc">SG90</text>
  </g>
  <g transform="translate(875, 345)">
    <rect x="0" y="0" width="40" height="30" fill="#2a2a4a" stroke="#6666cc" stroke-width="1" rx="2"/>
    <text x="20" y="12" text-anchor="middle" font-family="monospace" font-size="7" fill="#aaaaff" font-weight="bold">SRV 2</text>
    <rect x="30" y="8" width="18" height="4" fill="#6666cc" rx="1"/>
    <text x="20" y="26" text-anchor="middle" font-family="monospace" font-size="5" fill="#8888cc">SG90</text>
  </g>

  <!-- Mag lock (Seal 6) -->
  <g transform="translate(1120, 345)">
    <rect x="0" y="0" width="50" height="55" fill="#2a2a2a" stroke="#777" stroke-width="2" rx="2"/>
    <text x="25" y="16" text-anchor="middle" font-family="monospace" font-size="7" fill="#aaa" font-weight="bold">MAG 6</text>
    <rect x="5" y="22" width="40" height="28" fill="#444" stroke="#666" stroke-width="1" rx="2"/>
    <text x="25" y="40" text-anchor="middle" font-family="monospace" font-size="6" fill="#888">electro</text>
    <text x="25" y="48" text-anchor="middle" font-family="monospace" font-size="6" fill="#888">magnet</text>
  </g>

  <!-- Seal 7 solenoid (with spring) -->
  <g transform="translate(1190, 345)">
    <rect x="0" y="0" width="50" height="55" fill="#2a1515" stroke="#c9302c" stroke-width="2" rx="2"/>
    <text x="25" y="16" text-anchor="middle" font-family="monospace" font-size="7" fill="#ff6666" font-weight="bold">SOL 7</text>
    <rect x="8" y="22" width="34" height="8" fill="#555" rx="1"/>
    <text x="25" y="40" text-anchor="middle" font-family="monospace" font-size="6" fill="#cc8888">spring</text>
    <text x="25" y="48" text-anchor="middle" font-family="monospace" font-size="6" fill="#cc8888">latch</text>
  </g>

  <!-- GND and power bus bars -->
  <g transform="translate(830, 420)">
    <rect x="0" y="0" width="410" height="12" fill="#333" stroke="#555" stroke-width="1" rx="2"/>
    <text x="205" y="9" text-anchor="middle" font-family="monospace" font-size="7" fill="#aaa">GND BUS (common ground)</text>
  </g>
  <g transform="translate(830, 440)">
    <rect x="0" y="0" width="200" height="12" fill="#3a1a1a" stroke="#cc3333" stroke-width="1" rx="2"/>
    <text x="100" y="9" text-anchor="middle" font-family="monospace" font-size="7" fill="#ff6666">12V BUS</text>
  </g>
  <g transform="translate(1040, 440)">
    <rect x="0" y="0" width="200" height="12" fill="#1a3a1a" stroke="#33cc33" stroke-width="1" rx="2"/>
    <text x="100" y="9" text-anchor="middle" font-family="monospace" font-size="7" fill="#66ff66">5V BUS</text>
  </g>

  <!-- Barrel jack (back side) -->
  <g transform="translate(1210, 480)">
    <circle cx="0" cy="0" r="12" fill="#333" stroke="#c9302c" stroke-width="2"/>
    <circle cx="0" cy="0" r="5" fill="#222" stroke="#555" stroke-width="1"/>
    <text x="0" y="22" text-anchor="middle" font-family="monospace" font-size="7" fill="#c9302c">12V IN</text>
  </g>

  <!-- NeoPixel strip routing note -->
  <g transform="translate(830, 470)">
    <rect x="0" y="0" width="140" height="22" fill="#2a1a2a" stroke="#bc8cff" stroke-width="1" rx="3"/>
    <text x="70" y="14" text-anchor="middle" font-family="monospace" font-size="7" fill="#bc8cff">NeoPixel strip (7 LEDs)</text>
  </g>

  <!-- Keypad ribbon cable note -->
  <g transform="translate(980, 470)">
    <rect x="0" y="0" width="100" height="22" fill="#1a2a2a" stroke="#39c5cf" stroke-width="1" rx="3"/>
    <text x="50" y="14" text-anchor="middle" font-family="monospace" font-size="7" fill="#39c5cf">Keypad ribbon (8p)</text>
  </g>

  <!-- LCD cable note -->
  <g transform="translate(1090, 470)">
    <rect x="0" y="0" width="90" height="22" fill="#1a2a2a" stroke="#39c5cf" stroke-width="1" rx="3"/>
    <text x="45" y="14" text-anchor="middle" font-family="monospace" font-size="7" fill="#39c5cf">LCD I2C (4p)</text>
  </g>

  <!-- ================================================================ -->
  <!-- SECTION 3: WIRING SCHEMATIC -->
  <!-- ================================================================ -->
  <text x="700" y="620" text-anchor="middle" font-family="'Helvetica Neue', Arial, sans-serif" font-size="20" fill="#d4a843" font-weight="bold">WIRING SCHEMATIC</text>
  <text x="700" y="642" text-anchor="middle" font-family="monospace" font-size="11" fill="#8b949e">All connections from ESP32 to components  -  color-coded by function</text>

  <!-- Wiring background -->
  <rect x="60" y="660" width="1280" height="520" fill="#0a0e14" stroke="#1a2035" stroke-width="1" rx="8"/>

  <!-- Central ESP32 -->
  <g transform="translate(550, 860)">
    <rect x="0" y="0" width="140" height="200" fill="url(#pcbGrad)" stroke="#2a7a2a" stroke-width="2" rx="5"/>
    <text x="70" y="25" text-anchor="middle" font-family="'Helvetica Neue', Arial, sans-serif" font-size="14" fill="#aaffaa" font-weight="bold">ESP32</text>
    <text x="70" y="40" text-anchor="middle" font-family="monospace" font-size="9" fill="#88cc88">DevKit V1</text>
    <rect x="50" y="-8" width="40" height="12" fill="#555" stroke="#666" stroke-width="1" rx="2"/>
    <text x="70" y="0" text-anchor="middle" font-family="monospace" font-size="6" fill="#aaa">USB</text>

    <!-- Left pins -->
    <g font-family="monospace" font-size="8" fill="#e6edf3">
      <circle cx="-5" cy="60" r="3" fill="#58a6ff"/><text x="-14" y="63" text-anchor="end">G4</text>
      <circle cx="-5" cy="75" r="3" fill="#58a6ff"/><text x="-14" y="78" text-anchor="end">G16</text>
      <circle cx="-5" cy="90" r="3" fill="#58a6ff"/><text x="-14" y="93" text-anchor="end">G17</text>
      <circle cx="-5" cy="105" r="3" fill="#58a6ff"/><text x="-14" y="108" text-anchor="end">G5</text>
      <circle cx="-5" cy="120" r="3" fill="#bc8cff"/><text x="-14" y="123" text-anchor="end">G13</text>
      <circle cx="-5" cy="135" r="3" fill="#d29922"/><text x="-14" y="138" text-anchor="end">G12</text>
      <circle cx="-5" cy="150" r="3" fill="#3fb950"/><text x="-14" y="153" text-anchor="end">G14</text>
      <circle cx="-5" cy="165" r="3" fill="#3fb950"/><text x="-14" y="168" text-anchor="end">G27</text>
      <circle cx="-5" cy="180" r="3" fill="#c9302c"/><text x="-14" y="183" text-anchor="end">G35</text>
    </g>

    <!-- Right pins -->
    <g font-family="monospace" font-size="8" fill="#e6edf3">
      <circle cx="145" cy="60" r="3" fill="#58a6ff"/><text x="154" y="63">G18</text>
      <circle cx="145" cy="75" r="3" fill="#58a6ff"/><text x="154" y="78">G19</text>
      <circle cx="145" cy="90" r="3" fill="#58a6ff"/><text x="154" y="93">G23</text>
      <circle cx="145" cy="105" r="3" fill="#58a6ff"/><text x="154" y="108">G15</text>
      <circle cx="145" cy="120" r="3" fill="#39c5cf"/><text x="154" y="123">G21</text>
      <circle cx="145" cy="135" r="3" fill="#39c5cf"/><text x="154" y="138">G22</text>
      <circle cx="145" cy="150" r="3" fill="#d29922"/><text x="154" y="153">G26</text>
      <circle cx="145" cy="165" r="3" fill="#d29922"/><text x="154" y="168">G25</text>
      <circle cx="145" cy="180" r="3" fill="#d29922"/><text x="154" y="183">G33</text>
      <circle cx="145" cy="195" r="3" fill="#ff6666"/><text x="154" y="198">G32</text>
    </g>
  </g>

  <!-- === WIRING: KEYPAD (left side, blue) === -->
  <g transform="translate(130, 790)">
    <rect x="0" y="0" width="120" height="120" fill="#1a2a3a" stroke="#58a6ff" stroke-width="2" rx="5"/>
    <text x="60" y="18" text-anchor="middle" font-family="monospace" font-size="10" fill="#58a6ff" font-weight="bold">4x4 KEYPAD</text>
    <text x="60" y="35" text-anchor="middle" font-family="monospace" font-size="8" fill="#8b949e">8-pin ribbon</text>
    <g font-family="monospace" font-size="7" fill="#8b949e">
      <text x="15" y="52">R1  >  G4</text>
      <text x="15" y="64">R2  >  G16</text>
      <text x="15" y="76">R3  >  G17</text>
      <text x="15" y="88">R4  >  G5</text>
      <text x="15" y="100">C1  >  G18</text>
      <text x="15" y="112">C2  >  G19</text>
    </g>
  </g>
  <!-- Keypad wires -->
  <line x1="250" y1="850" x2="545" y2="920" stroke="#58a6ff" stroke-width="1.5" marker-end="url(#arrowBlue)"/>
  <line x1="250" y1="865" x2="545" y2="935" stroke="#58a6ff" stroke-width="1.5" marker-end="url(#arrowBlue)"/>
  <line x1="250" y1="880" x2="545" y2="950" stroke="#58a6ff" stroke-width="1.5" marker-end="url(#arrowBlue)"/>
  <line x1="250" y1="895" x2="545" y2="965" stroke="#58a6ff" stroke-width="1.5" marker-end="url(#arrowBlue)"/>

  <!-- === WIRING: LCD (right side, cyan) === -->
  <g transform="translate(900, 920)">
    <rect x="0" y="0" width="130" height="70" fill="#1a2a2a" stroke="#39c5cf" stroke-width="2" rx="5"/>
    <text x="65" y="18" text-anchor="middle" font-family="monospace" font-size="10" fill="#39c5cf" font-weight="bold">LCD 20x4</text>
    <text x="65" y="32" text-anchor="middle" font-family="monospace" font-size="8" fill="#8b949e">I2C (PCF8574)</text>
    <g font-family="monospace" font-size="7" fill="#8b949e">
      <text x="10" y="48">SDA  >  G21</text>
      <text x="10" y="60">SCL  >  G22</text>
    </g>
  </g>
  <!-- LCD wires -->
  <line x1="900" y1="950" x2="695" y2="980" stroke="#39c5cf" stroke-width="1.5" marker-end="url(#arrowGray)"/>
  <line x1="900" y1="962" x2="695" y2="995" stroke="#39c5cf" stroke-width="1.5" marker-end="url(#arrowGray)"/>

  <!-- === WIRING: NeoPixels (left, purple) === -->
  <g transform="translate(130, 960)">
    <rect x="0" y="0" width="120" height="55" fill="#2a1a2a" stroke="#bc8cff" stroke-width="2" rx="5"/>
    <text x="60" y="18" text-anchor="middle" font-family="monospace" font-size="10" fill="#bc8cff" font-weight="bold">NeoPixel</text>
    <text x="60" y="32" text-anchor="middle" font-family="monospace" font-size="8" fill="#8b949e">WS2812B x7</text>
    <text x="60" y="46" text-anchor="middle" font-family="monospace" font-size="7" fill="#8b949e">Data  >  G13 (330ohm)</text>
  </g>
  <!-- NeoPixel wire -->
  <line x1="250" y1="985" x2="545" y2="980" stroke="#bc8cff" stroke-width="2" marker-end="url(#arrowGray)"/>

  <!-- === WIRING: Buzzer (left, orange) === -->
  <g transform="translate(130, 1040)">
    <rect x="0" y="0" width="120" height="40" fill="#2a2a1a" stroke="#d29922" stroke-width="2" rx="5"/>
    <text x="60" y="18" text-anchor="middle" font-family="monospace" font-size="10" fill="#d29922" font-weight="bold">BUZZER</text>
    <text x="60" y="32" text-anchor="middle" font-family="monospace" font-size="7" fill="#8b949e">Signal  >  G12 (100ohm)</text>
  </g>
  <!-- Buzzer wire -->
  <line x1="250" y1="1058" x2="545" y2="995" stroke="#d29922" stroke-width="1.5" marker-end="url(#arrowOrange)"/>

  <!-- === WIRING: Servos (left, green) === -->
  <g transform="translate(130, 1100)">
    <rect x="0" y="0" width="120" height="55" fill="#1a2a1a" stroke="#3fb950" stroke-width="2" rx="5"/>
    <text x="60" y="18" text-anchor="middle" font-family="monospace" font-size="10" fill="#3fb950" font-weight="bold">SERVOS</text>
    <text x="60" y="32" text-anchor="middle" font-family="monospace" font-size="8" fill="#8b949e">Seals 1-2 (SG90)</text>
    <g font-family="monospace" font-size="7" fill="#8b949e">
      <text x="10" y="46">S1  >  G14  S2  >  G27</text>
    </g>
  </g>
  <!-- Servo wires -->
  <line x1="250" y1="1120" x2="545" y2="1010" stroke="#3fb950" stroke-width="1.5" marker-end="url(#arrowGreen)"/>
  <line x1="250" y1="1135" x2="545" y2="1025" stroke="#3fb950" stroke-width="1.5" marker-end="url(#arrowGreen)"/>

  <!-- === WIRING: Solenoids via MOSFETs (right, orange) === -->
  <g transform="translate(900, 700)">
    <rect x="0" y="0" width="180" height="100" fill="#2a2a1a" stroke="#d29922" stroke-width="2" rx="5"/>
    <text x="90" y="18" text-anchor="middle" font-family="monospace" font-size="10" fill="#d29922" font-weight="bold">SOLENOID LOCKS</text>
    <text x="90" y="32" text-anchor="middle" font-family="monospace" font-size="8" fill="#8b949e">Seals 3-5 via MOSFET</text>
    <g font-family="monospace" font-size="7" fill="#8b949e">
      <text x="10" y="50">Seal 3: G26  >  1kohm  >  MOSFET  >  SOL</text>
      <text x="10" y="64">Seal 4: G25  >  1kohm  >  MOSFET  >  SOL</text>
      <text x="10" y="78">Seal 5: G33  >  1kohm  >  MOSFET  >  SOL</text>
      <text x="10" y="92">+ 10kohm pull-down + 1N4007 each</text>
    </g>
  </g>
  <!-- Solenoid wires -->
  <line x1="900" y1="748" x2="695" y2="1010" stroke="#d29922" stroke-width="1.5" marker-end="url(#arrowOrange)"/>
  <line x1="900" y1="762" x2="695" y2="1025" stroke="#d29922" stroke-width="1.5" marker-end="url(#arrowOrange)"/>
  <line x1="900" y1="776" x2="695" y2="1040" stroke="#d29922" stroke-width="1.5" marker-end="url(#arrowOrange)"/>

  <!-- === WIRING: Relay (Seal 6, right, red) === -->
  <g transform="translate(900, 820)">
    <rect x="0" y="0" width="180" height="55" fill="#2a1a1a" stroke="#ff6666" stroke-width="2" rx="5"/>
    <text x="90" y="18" text-anchor="middle" font-family="monospace" font-size="10" fill="#ff6666" font-weight="bold">MAG LOCK (Seal 6)</text>
    <text x="90" y="32" text-anchor="middle" font-family="monospace" font-size="8" fill="#8b949e">G32  >  Relay  >  12V mag lock</text>
    <text x="90" y="46" text-anchor="middle" font-family="monospace" font-size="7" fill="#8b949e">Active LOW + 1N4007 flyback</text>
  </g>
  <!-- Relay wire -->
  <line x1="900" y1="847" x2="695" y2="1055" stroke="#ff6666" stroke-width="1.5" marker-end="url(#arrowRed)"/>

  <!-- === WIRING: Seal 7 power sense (right, red) === -->
  <g transform="translate(900, 1020)">
    <rect x="0" y="0" width="180" height="70" fill="#1a0a0a" stroke="#c9302c" stroke-width="2" rx="5"/>
    <text x="90" y="18" text-anchor="middle" font-family="monospace" font-size="10" fill="#c9302c" font-weight="bold">SEAL 7 (META)</text>
    <text x="90" y="32" text-anchor="middle" font-family="monospace" font-size="8" fill="#8b949e">Power-sense: G35 (input)</text>
    <text x="90" y="46" text-anchor="middle" font-family="monospace" font-size="7" fill="#8b949e">12V  >  10kohm  >  G35  >  3.3kohm  >  GND</text>
    <text x="90" y="60" text-anchor="middle" font-family="monospace" font-size="7" fill="#993333">Relay tied to 5V (not ESP32)</text>
  </g>
  <!-- Seal 7 wire -->
  <line x1="900" y1="1055" x2="695" y2="1040" stroke="#c9302c" stroke-width="2" marker-end="url(#arrowRed)"/>

  <!-- === POWER SUPPLY (bottom center) === -->
  <g transform="translate(420, 1110)">
    <rect x="0" y="0" width="400" height="55" fill="#1a1a1a" stroke="#555" stroke-width="2" rx="5"/>
    <text x="200" y="18" text-anchor="middle" font-family="monospace" font-size="10" fill="#d4a843" font-weight="bold">POWER SUPPLY</text>
    <g font-family="monospace" font-size="8" fill="#8b949e">
      <text x="20" y="36">12V 2A DC Adapter</text>
      <text x="20" y="48"> >  fuse  >  12V bus (solenoids, mag lock, Seal 7)</text>
      <text x="220" y="36"> >  MP1584  >  5V bus (ESP32, servos, LEDs, LCD)</text>
      <text x="220" y="48"> >  9V battery backup (via Schottky diode)</text>
    </g>
  </g>

  <!-- ================================================================ -->
  <!-- SECTION 4: WIRE COLOR LEGEND -->
  <!-- ================================================================ -->
  <text x="700" y="1230" text-anchor="middle" font-family="'Helvetica Neue', Arial, sans-serif" font-size="20" fill="#e6edf3" font-weight="bold">WIRE COLOR LEGEND</text>

  <g transform="translate(140, 1255)">
    <rect x="0" y="0" width="1120" height="50" fill="#0a0e14" stroke="#1a2035" stroke-width="1" rx="5"/>
    <g font-family="monospace" font-size="10">
      <rect x="15" y="15" width="40" height="6" fill="#c9302c" rx="2"/><text x="60" y="22" fill="#c9302c">12V power</text>
      <rect x="160" y="15" width="40" height="6" fill="#3fb950" rx="2"/><text x="205" y="22" fill="#3fb950">5V power / servo signal</text>
      <rect x="390" y="15" width="40" height="6" fill="#58a6ff" rx="2"/><text x="435" y="22" fill="#58a6ff">Keypad / digital I/O</text>
      <rect x="620" y="15" width="40" height="6" fill="#d29922" rx="2"/><text x="665" y="22" fill="#d29922">Solenoid / buzzer</text>
      <rect x="830" y="15" width="40" height="6" fill="#bc8cff" rx="2"/><text x="875" y="22" fill="#bc8cff">NeoPixel data</text>
      <rect x="990" y="15" width="40" height="6" fill="#39c5cf" rx="2"/><text x="1035" y="22" fill="#39c5cf">I2C (LCD)</text>
    </g>
    <rect x="15" y="33" width="40" height="6" fill="#555" rx="2"/><text x="60" y="40" font-family="monospace" font-size="10" fill="#8b949e">GND (common)</text>
  </g>

  <!-- ================================================================ -->
  <!-- SECTION 5: SIDE CROSS-SECTION -->
  <!-- ================================================================ -->
  <text x="700" y="1360" text-anchor="middle" font-family="'Helvetica Neue', Arial, sans-serif" font-size="20" fill="#d29922" font-weight="bold">SIDE CROSS-SECTION</text>
  <text x="700" y="1382" text-anchor="middle" font-family="monospace" font-size="11" fill="#8b949e">How components sit behind the panel  -  depth view</text>

  <rect x="100" y="1400" width="1200" height="350" fill="#0a0e14" stroke="#1a2035" stroke-width="1" rx="8"/>

  <!-- Panel face (thin vertical line) -->
  <rect x="350" y="1420" width="8" height="310" fill="#555" stroke="#666" stroke-width="1"/>
  <text x="354" y="1415" text-anchor="middle" font-family="monospace" font-size="9" fill="#8b949e">PANEL</text>
  <text x="354" y="1745" text-anchor="middle" font-family="monospace" font-size="8" fill="#8b949e">(8mm)</text>

  <!-- Player side label -->
  <text x="225" y="1440" text-anchor="middle" font-family="monospace" font-size="12" fill="#58a6ff">PLAYER SIDE</text>
  <text x="225" y="1455" text-anchor="middle" font-family="monospace" font-size="9" fill="#8b949e">(front)</text>

  <!-- Electronics side label -->
  <text x="750" y="1440" text-anchor="middle" font-family="monospace" font-size="12" fill="#3fb950">ELECTRONICS SIDE</text>
  <text x="750" y="1455" text-anchor="middle" font-family="monospace" font-size="9" fill="#8b949e">(back, ~200mm deep)</text>

  <!-- Seal face (visible from front) -->
  <g transform="translate(310, 1485)">
    <circle cx="0" cy="0" r="16" fill="#2a2a2a" stroke="#555" stroke-width="1.5"/>
    <text x="0" y="4" text-anchor="middle" font-family="monospace" font-size="8" fill="#d4a843">SEAL</text>
    <text x="-35" y="4" text-anchor="end" font-family="monospace" font-size="8" fill="#8b949e">visible</text>
  </g>

  <!-- NeoPixel (in front of panel, near seal) -->
  <g transform="translate(315, 1520)">
    <circle cx="0" cy="0" r="5" fill="#cc3333" stroke="#555" stroke-width="1" filter="url(#glow)"/>
    <text x="-30" y="3" text-anchor="end" font-family="monospace" font-size="7" fill="#bc8cff">LED</text>
  </g>

  <!-- Solenoid (behind panel) -->
  <g transform="translate(430, 1475)">
    <rect x="0" y="0" width="80" height="30" fill="#333" stroke="#666" stroke-width="1.5" rx="2"/>
    <text x="40" y="13" text-anchor="middle" font-family="monospace" font-size="8" fill="#d29922">SOLENOID</text>
    <!-- Bolt going through panel -->
    <rect x="-82" y="10" width="82" height="8" fill="#555" rx="1"/>
    <text x="40" y="25" text-anchor="middle" font-family="monospace" font-size="6" fill="#888">bolt extends through panel</text>
  </g>

  <!-- Servo (behind panel) -->
  <g transform="translate(430, 1525)">
    <rect x="0" y="0" width="50" height="25" fill="#2a2a4a" stroke="#6666cc" stroke-width="1.5" rx="2"/>
    <text x="25" y="13" text-anchor="middle" font-family="monospace" font-size="8" fill="#aaaaff">SERVO</text>
    <!-- Arm going through panel -->
    <line x1="-2" y1="12" x2="-72" y2="12" stroke="#6666cc" stroke-width="2"/>
    <circle cx="-72" cy="12" r="4" fill="#6666cc"/>
    <text x="25" y="22" text-anchor="middle" font-family="monospace" font-size="6" fill="#8888cc">arm through slot</text>
  </g>

  <!-- ESP32 (deeper behind) -->
  <g transform="translate(600, 1480)">
    <rect x="0" y="0" width="55" height="70" fill="url(#pcbGrad)" stroke="#2a7a2a" stroke-width="1.5" rx="3"/>
    <text x="28" y="20" text-anchor="middle" font-family="monospace" font-size="8" fill="#aaffaa" font-weight="bold">ESP32</text>
    <text x="28" y="35" text-anchor="middle" font-family="monospace" font-size="7" fill="#88cc88">on</text>
    <text x="28" y="47" text-anchor="middle" font-family="monospace" font-size="7" fill="#88cc88">stand-</text>
    <text x="28" y="59" text-anchor="middle" font-family="monospace" font-size="7" fill="#88cc88">offs</text>
  </g>

  <!-- MOSFET board -->
  <g transform="translate(700, 1490)">
    <rect x="0" y="0" width="60" height="40" fill="#1a3a1a" stroke="#2a7a2a" stroke-width="1" rx="2"/>
    <text x="30" y="16" text-anchor="middle" font-family="monospace" font-size="7" fill="#aaffaa">MOSFET</text>
    <text x="30" y="28" text-anchor="middle" font-family="monospace" font-size="7" fill="#88cc88">board</text>
  </g>

  <!-- Relay module -->
  <g transform="translate(800, 1490)">
    <rect x="0" y="0" width="55" height="40" fill="#1a1a3a" stroke="#4444aa" stroke-width="1" rx="2"/>
    <text x="28" y="16" text-anchor="middle" font-family="monospace" font-size="7" fill="#aaaaff">RELAY</text>
    <text x="28" y="28" text-anchor="middle" font-family="monospace" font-size="7" fill="#8888cc">module</text>
  </g>

  <!-- Power supply area -->
  <g transform="translate(900, 1480)">
    <rect x="0" y="0" width="80" height="50" fill="#3a1a1a" stroke="#aa4444" stroke-width="1.5" rx="3"/>
    <text x="40" y="16" text-anchor="middle" font-family="monospace" font-size="7" fill="#ffaaaa">5V REG</text>
    <text x="40" y="30" text-anchor="middle" font-family="monospace" font-size="7" fill="#cc8888">+ fuse</text>
    <text x="40" y="42" text-anchor="middle" font-family="monospace" font-size="7" fill="#996666">+ 9V bat</text>
  </g>

  <!-- Barrel jack (at back edge) -->
  <g transform="translate(1050, 1490)">
    <circle cx="0" cy="0" r="12" fill="#333" stroke="#c9302c" stroke-width="2"/>
    <circle cx="0" cy="0" r="5" fill="#222"/>
    <text x="0" y="22" text-anchor="middle" font-family="monospace" font-size="8" fill="#c9302c">12V IN</text>
  </g>

  <!-- Back panel / cover -->
  <rect x="1100" y="1420" width="6" height="310" fill="#444" stroke="#555" stroke-width="1"/>
  <text x="1103" y="1415" text-anchor="middle" font-family="monospace" font-size="9" fill="#8b949e">BACK</text>

  <!-- Depth dimension -->
  <line x1="358" y1="1700" x2="1100" y2="1700" stroke="#555" stroke-width="0.8"/>
  <line x1="358" y1="1695" x2="358" y2="1705" stroke="#555" stroke-width="0.8"/>
  <line x1="1100" y1="1695" x2="1100" y2="1705" stroke="#555" stroke-width="0.8"/>
  <text x="729" y="1718" text-anchor="middle" font-family="monospace" font-size="10" fill="#555">~200 mm depth</text>

  <!-- Wire runs (behind panel) -->
  <g stroke="#444" stroke-width="1" stroke-dasharray="4,3" fill="none">
    <path d="M 510,1497 L 600,1497"/>
    <path d="M 510,1537 L 600,1537"/>
    <path d="M 655,1510 L 700,1510"/>
    <path d="M 760,1510 L 800,1510"/>
    <path d="M 855,1510 L 900,1510"/>
    <path d="M 980,1510 L 1050,1502"/>
  </g>
  <text x="730" y="1570" text-anchor="middle" font-family="monospace" font-size="8" fill="#555">wire runs along base (zip tied)</text>

  <!-- ================================================================ -->
  <!-- FOOTER -->
  <!-- ================================================================ -->
  <text x="700" y="1785" text-anchor="middle" font-family="'Helvetica Neue', Arial, sans-serif" font-size="11" fill="#8b949e" font-style="italic">"Now I have a SPL. Ho-ho-ho."  -  Nakatomi Plaza: Vault Heist</text>

</svg>
